<svg width="65" height="19" viewBox="0 0 65 19" fill="none" xmlns="http://www.w3.org/2000/svg">
<path d="M5.048 14.4H10.304V18H0.344V1.08H5.048V14.4ZM19.8371 18.168C18.2531 18.168 16.7971 17.8 15.4691 17.064C14.1411 16.312 13.0851 15.28 12.3011 13.968C11.5331 12.64 11.1491 11.144 11.1491 9.48C11.1491 7.816 11.5331 6.328 12.3011 5.016C13.0851 3.688 14.1411 2.656 15.4691 1.92C16.7971 1.184 18.2531 0.816 19.8371 0.816C21.4371 0.816 22.8931 1.184 24.2051 1.92C25.5331 2.656 26.5811 3.688 27.3491 5.016C28.1171 6.328 28.5011 7.816 28.5011 9.48C28.5011 11.144 28.1171 12.64 27.3491 13.968C26.5811 15.28 25.5331 16.312 24.2051 17.064C22.8771 17.8 21.4211 18.168 19.8371 18.168ZM19.8371 13.8C21.0371 13.8 21.9811 13.408 22.6691 12.624C23.3731 11.84 23.7251 10.792 23.7251 9.48C23.7251 8.136 23.3731 7.08 22.6691 6.312C21.9811 5.528 21.0371 5.136 19.8371 5.136C18.6211 5.136 17.6691 5.528 16.9811 6.312C16.2931 7.08 15.9491 8.136 15.9491 9.48C15.9491 10.808 16.2931 11.864 16.9811 12.648C17.6691 13.416 18.6211 13.8 19.8371 13.8ZM41.0077 6.648C40.7357 6.2 40.3597 5.856 39.8797 5.616C39.4157 5.376 38.8637 5.256 38.2237 5.256C37.0397 5.256 36.1037 5.64 35.4157 6.408C34.7437 7.176 34.4077 8.208 34.4077 9.504C34.4077 10.96 34.7677 12.072 35.4877 12.84C36.2237 13.592 37.2877 13.968 38.6797 13.968C40.3277 13.968 41.5037 13.224 42.2077 11.736H37.4797V8.352H46.2637V12.912C45.8957 13.808 45.3517 14.648 44.6317 15.432C43.9277 16.216 43.0317 16.864 41.9437 17.376C40.8557 17.872 39.6157 18.12 38.2237 18.12C36.5277 18.12 35.0237 17.76 33.7117 17.04C32.4157 16.304 31.4077 15.288 30.6877 13.992C29.9837 12.68 29.6317 11.184 29.6317 9.504C29.6317 7.84 29.9837 6.36 30.6877 5.064C31.4077 3.752 32.4157 2.736 33.7117 2.016C35.0077 1.28 36.5037 0.912 38.1997 0.912C40.3277 0.912 42.0877 1.424 43.4797 2.448C44.8717 3.472 45.7357 4.872 46.0717 6.648H41.0077ZM56.0758 18.168C54.4918 18.168 53.0358 17.8 51.7078 17.064C50.3798 16.312 49.3238 15.28 48.5398 13.968C47.7718 12.64 47.3878 11.144 47.3878 9.48C47.3878 7.816 47.7718 6.328 48.5398 5.016C49.3238 3.688 50.3798 2.656 51.7078 1.92C53.0358 1.184 54.4918 0.816 56.0758 0.816C57.6758 0.816 59.1318 1.184 60.4438 1.92C61.7718 2.656 62.8198 3.688 63.5878 5.016C64.3558 6.328 64.7398 7.816 64.7398 9.48C64.7398 11.144 64.3558 12.64 63.5878 13.968C62.8198 15.28 61.7718 16.312 60.4438 17.064C59.1158 17.8 57.6598 18.168 56.0758 18.168ZM56.0758 13.8C57.2758 13.8 58.2198 13.408 58.9078 12.624C59.6118 11.84 59.9638 10.792 59.9638 9.48C59.9638 8.136 59.6118 7.08 58.9078 6.312C58.2198 5.528 57.2758 5.136 56.0758 5.136C54.8598 5.136 53.9078 5.528 53.2198 6.312C52.5318 7.08 52.1878 8.136 52.1878 9.48C52.1878 10.808 52.5318 11.864 53.2198 12.648C53.9078 13.416 54.8598 13.8 56.0758 13.8Z" fill="#1E293B"/>
</svg>
